<svg width="800" height="500" viewBox="0 0 800 500" xmlns="http://www.w3.org/2000/svg">
  <defs>
    <linearGradient id="bg3" x1="0" y1="0" x2="1" y2="1">
      <stop offset="0%" stop-color="#1e293b"/>
      <stop offset="100%" stop-color="#0f172a"/>
    </linearGradient>
    <linearGradient id="court3" x1="0" y1="0" x2="0" y2="1">
      <stop offset="0%" stop-color="#1d4ed8"/>
      <stop offset="100%" stop-color="#1e3a8a"/>
    </linearGradient>
  </defs>
  <rect width="800" height="500" fill="url(#bg3)"/>
  <g opacity="0.35">
    <circle cx="80" cy="70" r="3" fill="#fde047"/>
    <circle cx="180" cy="40" r="3" fill="#fde047"/>
    <circle cx="620" cy="50" r="3" fill="#fde047"/>
    <circle cx="720" cy="80" r="3" fill="#fde047"/>
  </g>
  <g transform="translate(120,60)">
    <rect x="-10" y="-10" width="580" height="400" rx="10" fill="#0b1220" opacity="0.5"/>
    <rect x="0" y="0" width="560" height="380" rx="6" fill="url(#court3)"/>
    <rect x="0" y="0" width="560" height="380" rx="6" fill="none" stroke="#f8fafc" stroke-width="4"/>
    <line x1="0" y1="190" x2="560" y2="190" stroke="#f8fafc" stroke-width="3"/>
    <rect x="60" y="0" width="440" height="380" fill="none" stroke="#f8fafc" stroke-width="3"/>
    <line x1="60" y1="95" x2="500" y2="95" stroke="#f8fafc" stroke-width="2.5"/>
    <line x1="60" y1="285" x2="500" y2="285" stroke="#f8fafc" stroke-width="2.5"/>
    <line x1="280" y1="95" x2="280" y2="285" stroke="#f8fafc" stroke-width="2.5"/>
    <line x1="0" y1="190" x2="560" y2="190" stroke="#f1f5f9" stroke-width="6" opacity="0.9"/>
  </g>
  <text x="400" y="465" text-anchor="middle" font-family="Arial, sans-serif" font-size="22" fill="#e2e8f0" font-weight="600">Indoor Arena A &#183; Hard Court</text>
</svg>
